<svg width="275" height="58" viewBox="0 0 275 58" fill="none" xmlns="http://www.w3.org/2000/svg">
<path d="M19.752 45L0.424 0.199997H11.624L28.52 39.88H21.928L39.08 0.199997H49.384L29.992 45H19.752ZM66.242 45.512C62.5727 45.512 59.3087 44.744 56.45 43.208C53.634 41.672 51.394 39.5813 49.73 36.936C48.1087 34.248 47.298 31.1973 47.298 27.784C47.298 24.328 48.1087 21.2773 49.73 18.632C51.394 15.944 53.634 13.8533 56.45 12.36C59.3087 10.824 62.5727 10.056 66.242 10.056C69.8687 10.056 73.1113 10.824 75.97 12.36C78.8287 13.8533 81.0687 15.9227 82.69 18.568C84.3113 21.2133 85.122 24.2853 85.122 27.784C85.122 31.1973 84.3113 34.248 82.69 36.936C81.0687 39.5813 78.8287 41.672 75.97 43.208C73.1113 44.744 69.8687 45.512 66.242 45.512ZM66.242 37.32C67.906 37.32 69.3993 36.936 70.722 36.168C72.0447 35.4 73.09 34.312 73.858 32.904C74.626 31.4533 75.01 29.7467 75.01 27.784C75.01 25.7787 74.626 24.072 73.858 22.664C73.09 21.256 72.0447 20.168 70.722 19.4C69.3993 18.632 67.906 18.248 66.242 18.248C64.578 18.248 63.0847 18.632 61.762 19.4C60.4393 20.168 59.3727 21.256 58.562 22.664C57.794 24.072 57.41 25.7787 57.41 27.784C57.41 29.7467 57.794 31.4533 58.562 32.904C59.3727 34.312 60.4393 35.4 61.762 36.168C63.0847 36.936 64.578 37.32 66.242 37.32ZM95.21 57.928C93.418 57.928 91.6473 57.6507 89.898 57.096C88.1487 56.5413 86.7193 55.7733 85.61 54.792L89.258 47.688C90.026 48.3707 90.9007 48.904 91.882 49.288C92.906 49.672 93.9087 49.864 94.89 49.864C96.298 49.864 97.4073 49.5227 98.218 48.84C99.0713 48.2 99.8393 47.112 100.522 45.576L102.314 41.352L103.082 40.264L115.434 10.568H125.034L109.482 47.112C108.373 49.8853 107.093 52.0613 105.642 53.64C104.234 55.2187 102.655 56.328 100.906 56.968C99.1993 57.608 97.3007 57.928 95.21 57.928ZM101.098 46.344L85.738 10.568H96.042L107.946 39.368L101.098 46.344ZM149.103 45V38.28L148.463 36.808V24.776C148.463 22.6427 147.802 20.9787 146.479 19.784C145.199 18.5893 143.215 17.992 140.527 17.992C138.692 17.992 136.879 18.2907 135.087 18.888C133.338 19.4427 131.844 20.2107 130.607 21.192L127.023 14.216C128.9 12.8933 131.162 11.8693 133.807 11.144C136.452 10.4187 139.14 10.056 141.871 10.056C147.119 10.056 151.194 11.2933 154.095 13.768C156.996 16.2427 158.447 20.104 158.447 25.352V45H149.103ZM138.607 45.512C135.919 45.512 133.615 45.064 131.695 44.168C129.775 43.2293 128.303 41.9707 127.279 40.392C126.255 38.8133 125.743 37.0427 125.743 35.08C125.743 33.032 126.234 31.24 127.215 29.704C128.239 28.168 129.839 26.9733 132.015 26.12C134.191 25.224 137.028 24.776 140.527 24.776H149.679V30.6H141.615C139.268 30.6 137.647 30.984 136.751 31.752C135.898 32.52 135.471 33.48 135.471 34.632C135.471 35.912 135.962 36.936 136.943 37.704C137.967 38.4293 139.354 38.792 141.103 38.792C142.767 38.792 144.26 38.408 145.583 37.64C146.906 36.8293 147.866 35.656 148.463 34.12L149.999 38.728C149.274 40.9467 147.951 42.632 146.031 43.784C144.111 44.936 141.636 45.512 138.607 45.512ZM183.925 57.928C180.682 57.928 177.546 57.5227 174.517 56.712C171.53 55.944 169.034 54.7707 167.029 53.192L170.997 46.024C172.448 47.2187 174.282 48.1573 176.501 48.84C178.762 49.5653 180.981 49.928 183.157 49.928C186.698 49.928 189.258 49.1387 190.837 47.56C192.458 45.9813 193.269 43.6347 193.269 40.52V35.336L193.909 26.696L193.781 17.992V10.568H203.253V39.24C203.253 45.64 201.589 50.3547 198.261 53.384C194.933 56.4133 190.154 57.928 183.925 57.928ZM182.389 43.336C179.189 43.336 176.288 42.6533 173.685 41.288C171.125 39.88 169.056 37.9387 167.477 35.464C165.941 32.9467 165.173 30.024 165.173 26.696C165.173 23.3253 165.941 20.4027 167.477 17.928C169.056 15.4107 171.125 13.4693 173.685 12.104C176.288 10.7387 179.189 10.056 182.389 10.056C185.29 10.056 187.85 10.6533 190.069 11.848C192.288 13 194.016 14.8133 195.253 17.288C196.49 19.72 197.109 22.856 197.109 26.696C197.109 30.4933 196.49 33.6293 195.253 36.104C194.016 38.536 192.288 40.3493 190.069 41.544C187.85 42.7387 185.29 43.336 182.389 43.336ZM184.373 35.144C186.122 35.144 187.68 34.8027 189.045 34.12C190.41 33.3947 191.477 32.392 192.245 31.112C193.013 29.832 193.397 28.36 193.397 26.696C193.397 24.9893 193.013 23.5173 192.245 22.28C191.477 21 190.41 20.0187 189.045 19.336C187.68 18.6107 186.122 18.248 184.373 18.248C182.624 18.248 181.066 18.6107 179.701 19.336C178.336 20.0187 177.248 21 176.437 22.28C175.669 23.5173 175.285 24.9893 175.285 26.696C175.285 28.36 175.669 29.832 176.437 31.112C177.248 32.392 178.336 33.3947 179.701 34.12C181.066 34.8027 182.624 35.144 184.373 35.144ZM229.634 45.512C225.708 45.512 222.252 44.744 219.266 43.208C216.322 41.672 214.039 39.5813 212.418 36.936C210.796 34.248 209.986 31.1973 209.986 27.784C209.986 24.328 210.775 21.2773 212.354 18.632C213.975 15.944 216.172 13.8533 218.946 12.36C221.719 10.824 224.855 10.056 228.354 10.056C231.724 10.056 234.754 10.7813 237.442 12.232C240.172 13.64 242.327 15.688 243.906 18.376C245.484 21.0213 246.274 24.2 246.274 27.912C246.274 28.296 246.252 28.744 246.21 29.256C246.167 29.7253 246.124 30.1733 246.082 30.6H218.114V24.776H240.833L236.994 26.504C236.994 24.712 236.631 23.1547 235.906 21.832C235.18 20.5093 234.178 19.4853 232.898 18.76C231.618 17.992 230.124 17.608 228.418 17.608C226.711 17.608 225.196 17.992 223.874 18.76C222.594 19.4853 221.591 20.5307 220.866 21.896C220.14 23.2187 219.778 24.7973 219.778 26.632V28.168C219.778 30.0453 220.183 31.7093 220.994 33.16C221.847 34.568 223.02 35.656 224.514 36.424C226.05 37.1493 227.842 37.512 229.89 37.512C231.724 37.512 233.324 37.2347 234.69 36.68C236.098 36.1253 237.378 35.2933 238.53 34.184L243.842 39.944C242.263 41.736 240.279 43.1227 237.89 44.104C235.5 45.0427 232.748 45.512 229.634 45.512ZM252.921 45V10.568H262.457V20.296L261.113 17.48C262.137 15.048 263.779 13.2133 266.041 11.976C268.302 10.696 271.054 10.056 274.297 10.056V19.272C273.87 19.2293 273.486 19.208 273.145 19.208C272.803 19.1653 272.441 19.144 272.057 19.144C269.326 19.144 267.107 19.9333 265.401 21.512C263.737 23.048 262.905 25.4587 262.905 28.744V45H252.921Z" fill="white"/>
</svg>
