<svg width="207" height="117" viewBox="0 0 207 117" fill="none" xmlns="http://www.w3.org/2000/svg">
<g filter="url(#filter0_d_10_272)">
<path d="M7.736 18V1.2H14.024C15.448 1.2 16.672 1.432 17.696 1.896C18.72 2.344 19.504 3 20.048 3.864C20.608 4.712 20.888 5.744 20.888 6.96C20.888 8.144 20.608 9.168 20.048 10.032C19.504 10.88 18.72 11.536 17.696 12C16.672 12.464 15.448 12.696 14.024 12.696H8.72L9.512 11.856V18H7.736ZM9.512 12L8.72 11.136H13.976C15.656 11.136 16.928 10.776 17.792 10.056C18.672 9.32 19.112 8.288 19.112 6.96C19.112 5.616 18.672 4.576 17.792 3.84C16.928 3.104 15.656 2.736 13.976 2.736H8.72L9.512 1.896V12ZM24.6026 18V0.191999H26.3066V18H24.6026ZM38.9439 18V15.216L38.8719 14.76V10.104C38.8719 9.032 38.5679 8.208 37.9599 7.632C37.3679 7.056 36.4799 6.768 35.2959 6.768C34.4799 6.768 33.7039 6.904 32.9679 7.176C32.2319 7.448 31.6079 7.808 31.0959 8.256L30.3279 6.984C30.9679 6.44 31.7359 6.024 32.6319 5.736C33.5279 5.432 34.4719 5.28 35.4639 5.28C37.0959 5.28 38.3519 5.688 39.2319 6.504C40.1279 7.304 40.5759 8.528 40.5759 10.176V18H38.9439ZM34.5999 18.12C33.6559 18.12 32.8319 17.968 32.1279 17.664C31.4399 17.344 30.9119 16.912 30.5439 16.368C30.1759 15.808 29.9919 15.168 29.9919 14.448C29.9919 13.792 30.1439 13.2 30.4479 12.672C30.7679 12.128 31.2799 11.696 31.9839 11.376C32.7039 11.04 33.6639 10.872 34.8639 10.872H39.2079V12.144H34.9119C33.6959 12.144 32.8479 12.36 32.3679 12.792C31.9039 13.224 31.6719 13.76 31.6719 14.4C31.6719 15.12 31.9519 15.696 32.5119 16.128C33.0719 16.56 33.8559 16.776 34.8639 16.776C35.8239 16.776 36.6479 16.56 37.3359 16.128C38.0399 15.68 38.5519 15.04 38.8719 14.208L39.2559 15.384C38.9359 16.216 38.3759 16.88 37.5759 17.376C36.7919 17.872 35.7999 18.12 34.5999 18.12ZM51.6361 5.28C52.6601 5.28 53.5561 5.48 54.3241 5.88C55.1081 6.264 55.7161 6.856 56.1481 7.656C56.5961 8.456 56.8201 9.464 56.8201 10.68V18H55.1161V10.848C55.1161 9.52 54.7801 8.52 54.1081 7.848C53.4521 7.16 52.5241 6.816 51.3241 6.816C50.4281 6.816 49.6441 7 48.9721 7.368C48.3161 7.72 47.8041 8.24 47.4361 8.928C47.0841 9.6 46.9081 10.416 46.9081 11.376V18H45.2041V5.4H46.8361V8.856L46.5721 8.208C46.9721 7.296 47.6121 6.584 48.4921 6.072C49.3721 5.544 50.4201 5.28 51.6361 5.28ZM67.8001 22.776C67.2081 22.776 66.6401 22.68 66.0961 22.488C65.5681 22.296 65.1121 22.008 64.7281 21.624L65.5201 20.352C65.8401 20.656 66.1841 20.888 66.5521 21.048C66.9361 21.224 67.3601 21.312 67.8241 21.312C68.3841 21.312 68.8641 21.152 69.2641 20.832C69.6801 20.528 70.0721 19.984 70.4401 19.2L71.2561 17.352L71.4481 17.088L76.6321 5.4H78.3121L72.0001 19.512C71.6481 20.328 71.2561 20.976 70.8241 21.456C70.4081 21.936 69.9521 22.272 69.4561 22.464C68.9601 22.672 68.4081 22.776 67.8001 22.776ZM71.1601 18.36L65.3521 5.4H67.1281L72.2641 16.968L71.1601 18.36ZM85.4964 18.12C84.2804 18.12 83.1844 17.848 82.2084 17.304C81.2484 16.744 80.4884 15.984 79.9284 15.024C79.3684 14.048 79.0884 12.936 79.0884 11.688C79.0884 10.424 79.3684 9.312 79.9284 8.352C80.4884 7.392 81.2484 6.64 82.2084 6.096C83.1684 5.552 84.2644 5.28 85.4964 5.28C86.7444 5.28 87.8484 5.552 88.8084 6.096C89.7844 6.64 90.5444 7.392 91.0884 8.352C91.6484 9.312 91.9284 10.424 91.9284 11.688C91.9284 12.936 91.6484 14.048 91.0884 15.024C90.5444 15.984 89.7844 16.744 88.8084 17.304C87.8324 17.848 86.7284 18.12 85.4964 18.12ZM85.4964 16.608C86.4084 16.608 87.2164 16.408 87.9204 16.008C88.6244 15.592 89.1764 15.016 89.5764 14.28C89.9924 13.528 90.2004 12.664 90.2004 11.688C90.2004 10.696 89.9924 9.832 89.5764 9.096C89.1764 8.36 88.6244 7.792 87.9204 7.392C87.2164 6.976 86.4164 6.768 85.5204 6.768C84.6244 6.768 83.8244 6.976 83.1204 7.392C82.4164 7.792 81.8564 8.36 81.4404 9.096C81.0244 9.832 80.8164 10.696 80.8164 11.688C80.8164 12.664 81.0244 13.528 81.4404 14.28C81.8564 15.016 82.4164 15.592 83.1204 16.008C83.8244 16.408 84.6164 16.608 85.4964 16.608ZM100.615 18.12C99.5433 18.12 98.6073 17.92 97.8073 17.52C97.0073 17.12 96.3833 16.52 95.9353 15.72C95.5033 14.92 95.2873 13.92 95.2873 12.72V5.4H96.9913V12.528C96.9913 13.872 97.3193 14.888 97.9753 15.576C98.6473 16.248 99.5833 16.584 100.783 16.584C101.663 16.584 102.423 16.408 103.063 16.056C103.719 15.688 104.215 15.16 104.551 14.472C104.903 13.784 105.079 12.96 105.079 12V5.4H106.783V18H105.151V14.544L105.415 15.168C105.015 16.096 104.391 16.824 103.543 17.352C102.711 17.864 101.735 18.12 100.615 18.12ZM111.532 18V5.4H113.164V8.832L112.996 8.232C113.348 7.272 113.94 6.544 114.772 6.048C115.604 5.536 116.636 5.28 117.868 5.28V6.936C117.804 6.936 117.74 6.936 117.676 6.936C117.612 6.92 117.548 6.912 117.484 6.912C116.156 6.912 115.116 7.32 114.364 8.136C113.612 8.936 113.236 10.08 113.236 11.568V18H111.532ZM9.2 63V35H13.2V59.52H28.36V63H9.2ZM41.0366 63.24C39.2232 63.24 37.6232 62.9067 36.2366 62.24C34.8766 61.5733 33.8099 60.56 33.0366 59.2C32.2899 57.8133 31.9166 56.08 31.9166 54V41.8H35.7566V53.56C35.7566 55.64 36.2499 57.2 37.2366 58.24C38.2499 59.28 39.6632 59.8 41.4766 59.8C42.8099 59.8 43.9699 59.5333 44.9566 59C45.9432 58.44 46.7032 57.64 47.2366 56.6C47.7699 55.5333 48.0366 54.2533 48.0366 52.76V41.8H51.8766V63H48.2366V57.28L48.8366 58.8C48.1432 60.2133 47.1032 61.3067 45.7166 62.08C44.3299 62.8533 42.7699 63.24 41.0366 63.24ZM56.1069 63L65.2269 51.16L65.1869 53.12L56.5069 41.8H60.7869L67.4269 50.52H65.7869L72.4269 41.8H76.6269L67.8269 53.2L67.8669 51.16L77.0669 63H72.7069L65.7069 53.72L67.2669 53.96L60.3869 63H56.1069ZM89.7866 63.24C87.9732 63.24 86.3732 62.9067 84.9866 62.24C83.6266 61.5733 82.5599 60.56 81.7866 59.2C81.0399 57.8133 80.6666 56.08 80.6666 54V41.8H84.5066V53.56C84.5066 55.64 84.9999 57.2 85.9866 58.24C86.9999 59.28 88.4132 59.8 90.2266 59.8C91.5599 59.8 92.7199 59.5333 93.7066 59C94.6932 58.44 95.4532 57.64 95.9866 56.6C96.5199 55.5333 96.7866 54.2533 96.7866 52.76V41.8H100.627V63H96.9866V57.28L97.5866 58.8C96.8932 60.2133 95.8532 61.3067 94.4666 62.08C93.0799 62.8533 91.5199 63.24 89.7866 63.24ZM107.937 63V41.8H111.617V47.56L111.257 46.12C111.844 44.6533 112.83 43.5333 114.217 42.76C115.604 41.9867 117.31 41.6 119.337 41.6V45.32C119.177 45.2933 119.017 45.28 118.857 45.28C118.724 45.28 118.59 45.28 118.457 45.28C116.404 45.28 114.777 45.8933 113.577 47.12C112.377 48.3467 111.777 50.12 111.777 52.44V63H107.937ZM124.07 63V41.8H127.91V63H124.07ZM125.99 37.72C125.243 37.72 124.616 37.48 124.11 37C123.63 36.52 123.39 35.9333 123.39 35.24C123.39 34.52 123.63 33.92 124.11 33.44C124.616 32.96 125.243 32.72 125.99 32.72C126.736 32.72 127.35 32.96 127.83 33.44C128.336 33.8933 128.59 34.4667 128.59 35.16C128.59 35.88 128.35 36.4933 127.87 37C127.39 37.48 126.763 37.72 125.99 37.72ZM144.322 63.24C142.188 63.24 140.295 62.7733 138.642 61.84C136.988 60.9067 135.682 59.6267 134.722 58C133.762 56.3467 133.282 54.48 133.282 52.4C133.282 50.2933 133.762 48.4267 134.722 46.8C135.682 45.1733 136.988 43.9067 138.642 43C140.295 42.0667 142.188 41.6 144.322 41.6C146.428 41.6 148.308 42.0667 149.962 43C151.642 43.9067 152.948 45.1733 153.882 46.8C154.842 48.4 155.322 50.2667 155.322 52.4C155.322 54.5067 154.842 56.3733 153.882 58C152.948 59.6267 151.642 60.9067 149.962 61.84C148.308 62.7733 146.428 63.24 144.322 63.24ZM144.322 59.88C145.682 59.88 146.895 59.5733 147.962 58.96C149.055 58.3467 149.908 57.48 150.522 56.36C151.135 55.2133 151.442 53.8933 151.442 52.4C151.442 50.88 151.135 49.5733 150.522 48.48C149.908 47.36 149.055 46.4933 147.962 45.88C146.895 45.2667 145.682 44.96 144.322 44.96C142.962 44.96 141.748 45.2667 140.682 45.88C139.615 46.4933 138.762 47.36 138.122 48.48C137.482 49.5733 137.162 50.88 137.162 52.4C137.162 53.8933 137.482 55.2133 138.122 56.36C138.762 57.48 139.615 58.3467 140.682 58.96C141.748 59.5733 142.962 59.88 144.322 59.88ZM169.552 63.24C167.739 63.24 166.139 62.9067 164.752 62.24C163.392 61.5733 162.326 60.56 161.552 59.2C160.806 57.8133 160.432 56.08 160.432 54V41.8H164.272V53.56C164.272 55.64 164.766 57.2 165.752 58.24C166.766 59.28 168.179 59.8 169.992 59.8C171.326 59.8 172.486 59.5333 173.472 59C174.459 58.44 175.219 57.64 175.752 56.6C176.286 55.5333 176.552 54.2533 176.552 52.76V41.8H180.392V63H176.752V57.28L177.352 58.8C176.659 60.2133 175.619 61.3067 174.232 62.08C172.846 62.8533 171.286 63.24 169.552 63.24ZM193.783 63.24C192.023 63.24 190.343 63 188.743 62.52C187.169 62.04 185.929 61.4533 185.023 60.76L186.623 57.72C187.529 58.3333 188.649 58.8533 189.983 59.28C191.316 59.7067 192.676 59.92 194.062 59.92C195.849 59.92 197.129 59.6667 197.903 59.16C198.703 58.6533 199.103 57.9467 199.103 57.04C199.103 56.3733 198.863 55.8533 198.383 55.48C197.903 55.1067 197.263 54.8267 196.463 54.64C195.689 54.4533 194.823 54.2933 193.863 54.16C192.903 54 191.943 53.8133 190.983 53.6C190.023 53.36 189.143 53.04 188.343 52.64C187.543 52.2133 186.903 51.64 186.423 50.92C185.943 50.1733 185.703 49.1867 185.703 47.96C185.703 46.68 186.063 45.56 186.783 44.6C187.503 43.64 188.516 42.9067 189.823 42.4C191.156 41.8667 192.729 41.6 194.543 41.6C195.929 41.6 197.329 41.7733 198.743 42.12C200.183 42.44 201.356 42.9067 202.263 43.52L200.623 46.56C199.663 45.92 198.663 45.48 197.623 45.24C196.583 45 195.543 44.88 194.503 44.88C192.823 44.88 191.569 45.16 190.743 45.72C189.916 46.2533 189.503 46.9467 189.503 47.8C189.503 48.52 189.743 49.08 190.223 49.48C190.729 49.8533 191.369 50.1467 192.143 50.36C192.943 50.5733 193.823 50.76 194.783 50.92C195.743 51.0533 196.703 51.24 197.663 51.48C198.623 51.6933 199.489 52 200.263 52.4C201.063 52.8 201.703 53.36 202.183 54.08C202.689 54.8 202.943 55.76 202.943 56.96C202.943 58.24 202.569 59.3467 201.823 60.28C201.076 61.2133 200.023 61.9467 198.663 62.48C197.303 62.9867 195.676 63.24 193.783 63.24ZM17.28 108L4.96 80H9.28L20.6 105.84H18.12L29.52 80H33.52L21.24 108H17.28ZM48.0891 108V103.52L47.8891 102.68V95.04C47.8891 93.4133 47.4091 92.16 46.4491 91.28C45.5157 90.3733 44.1024 89.92 42.2091 89.92C40.9557 89.92 39.7291 90.1333 38.5291 90.56C37.3291 90.96 36.3157 91.5067 35.4891 92.2L33.8891 89.32C34.9824 88.44 36.2891 87.7733 37.8091 87.32C39.3557 86.84 40.9691 86.6 42.6491 86.6C45.5557 86.6 47.7957 87.3067 49.3691 88.72C50.9424 90.1333 51.7291 92.2933 51.7291 95.2V108H48.0891ZM41.1291 108.24C39.5557 108.24 38.1691 107.973 36.9691 107.44C35.7957 106.907 34.8891 106.173 34.2491 105.24C33.6091 104.28 33.2891 103.2 33.2891 102C33.2891 100.853 33.5557 99.8133 34.0891 98.88C34.6491 97.9467 35.5424 97.2 36.7691 96.64C38.0224 96.08 39.7024 95.8 41.8091 95.8H48.5291V98.56H41.9691C40.0491 98.56 38.7557 98.88 38.0891 99.52C37.4224 100.16 37.0891 100.933 37.0891 101.84C37.0891 102.88 37.5024 103.72 38.3291 104.36C39.1557 104.973 40.3024 105.28 41.7691 105.28C43.2091 105.28 44.4624 104.96 45.5291 104.32C46.6224 103.68 47.4091 102.747 47.8891 101.52L48.6491 104.16C48.1424 105.413 47.2491 106.413 45.9691 107.16C44.6891 107.88 43.0757 108.24 41.1291 108.24ZM68.0753 108.24C65.9153 108.24 63.982 107.773 62.2753 106.84C60.5953 105.907 59.2753 104.627 58.3153 103C57.3553 101.373 56.8753 99.5067 56.8753 97.4C56.8753 95.2933 57.3553 93.4267 58.3153 91.8C59.2753 90.1733 60.5953 88.9067 62.2753 88C63.982 87.0667 65.9153 86.6 68.0753 86.6C69.9953 86.6 71.702 86.9867 73.1953 87.76C74.7153 88.5067 75.8886 89.6267 76.7153 91.12L73.7953 93C73.102 91.96 72.2486 91.2 71.2353 90.72C70.2486 90.2133 69.182 89.96 68.0353 89.96C66.6486 89.96 65.4086 90.2667 64.3153 90.88C63.222 91.4933 62.3553 92.36 61.7153 93.48C61.0753 94.5733 60.7553 95.88 60.7553 97.4C60.7553 98.92 61.0753 100.24 61.7153 101.36C62.3553 102.48 63.222 103.347 64.3153 103.96C65.4086 104.573 66.6486 104.88 68.0353 104.88C69.182 104.88 70.2486 104.64 71.2353 104.16C72.2486 103.653 73.102 102.88 73.7953 101.84L76.7153 103.68C75.8886 105.147 74.7153 106.28 73.1953 107.08C71.702 107.853 69.9953 108.24 68.0753 108.24ZM94.8469 108V103.52L94.6469 102.68V95.04C94.6469 93.4133 94.1669 92.16 93.2069 91.28C92.2735 90.3733 90.8602 89.92 88.9669 89.92C87.7135 89.92 86.4869 90.1333 85.2869 90.56C84.0869 90.96 83.0735 91.5067 82.2469 92.2L80.6469 89.32C81.7402 88.44 83.0469 87.7733 84.5669 87.32C86.1135 86.84 87.7269 86.6 89.4069 86.6C92.3135 86.6 94.5535 87.3067 96.1269 88.72C97.7002 90.1333 98.4869 92.2933 98.4869 95.2V108H94.8469ZM87.8869 108.24C86.3135 108.24 84.9269 107.973 83.7269 107.44C82.5535 106.907 81.6469 106.173 81.0069 105.24C80.3669 104.28 80.0469 103.2 80.0469 102C80.0469 100.853 80.3135 99.8133 80.8469 98.88C81.4069 97.9467 82.3002 97.2 83.5269 96.64C84.7802 96.08 86.4602 95.8 88.5669 95.8H95.2869V98.56H88.7269C86.8069 98.56 85.5135 98.88 84.8469 99.52C84.1802 100.16 83.8469 100.933 83.8469 101.84C83.8469 102.88 84.2602 103.72 85.0869 104.36C85.9135 104.973 87.0602 105.28 88.5269 105.28C89.9669 105.28 91.2202 104.96 92.2869 104.32C93.3802 103.68 94.1669 102.747 94.6469 101.52L95.4069 104.16C94.9002 105.413 94.0069 106.413 92.7269 107.16C91.4469 107.88 89.8335 108.24 87.8869 108.24ZM112.873 108.24C110.74 108.24 109.086 107.667 107.913 106.52C106.74 105.373 106.153 103.733 106.153 101.6V82.16H109.993V101.44C109.993 102.587 110.273 103.467 110.833 104.08C111.42 104.693 112.246 105 113.313 105C114.513 105 115.513 104.667 116.313 104L117.513 106.76C116.926 107.267 116.22 107.64 115.393 107.88C114.593 108.12 113.753 108.24 112.873 108.24ZM102.553 89.96V86.8H116.073V89.96H102.553ZM122.156 108V86.8H125.996V108H122.156ZM124.076 82.72C123.329 82.72 122.702 82.48 122.196 82C121.716 81.52 121.476 80.9333 121.476 80.24C121.476 79.52 121.716 78.92 122.196 78.44C122.702 77.96 123.329 77.72 124.076 77.72C124.822 77.72 125.436 77.96 125.916 78.44C126.422 78.8933 126.676 79.4667 126.676 80.16C126.676 80.88 126.436 81.4933 125.956 82C125.476 82.48 124.849 82.72 124.076 82.72ZM142.408 108.24C140.274 108.24 138.381 107.773 136.728 106.84C135.074 105.907 133.768 104.627 132.808 103C131.848 101.347 131.368 99.48 131.368 97.4C131.368 95.2933 131.848 93.4267 132.808 91.8C133.768 90.1733 135.074 88.9067 136.728 88C138.381 87.0667 140.274 86.6 142.408 86.6C144.514 86.6 146.394 87.0667 148.048 88C149.728 88.9067 151.034 90.1733 151.968 91.8C152.928 93.4 153.408 95.2667 153.408 97.4C153.408 99.5067 152.928 101.373 151.968 103C151.034 104.627 149.728 105.907 148.048 106.84C146.394 107.773 144.514 108.24 142.408 108.24ZM142.408 104.88C143.768 104.88 144.981 104.573 146.048 103.96C147.141 103.347 147.994 102.48 148.608 101.36C149.221 100.213 149.528 98.8933 149.528 97.4C149.528 95.88 149.221 94.5733 148.608 93.48C147.994 92.36 147.141 91.4933 146.048 90.88C144.981 90.2667 143.768 89.96 142.408 89.96C141.048 89.96 139.834 90.2667 138.768 90.88C137.701 91.4933 136.848 92.36 136.208 93.48C135.568 94.5733 135.248 95.88 135.248 97.4C135.248 98.8933 135.568 100.213 136.208 101.36C136.848 102.48 137.701 103.347 138.768 103.96C139.834 104.573 141.048 104.88 142.408 104.88ZM170.038 86.6C171.771 86.6 173.291 86.9333 174.598 87.6C175.931 88.2667 176.971 89.28 177.718 90.64C178.465 92 178.838 93.72 178.838 95.8V108H174.998V96.24C174.998 94.1867 174.491 92.64 173.478 91.6C172.491 90.56 171.091 90.04 169.278 90.04C167.918 90.04 166.731 90.3067 165.718 90.84C164.705 91.3733 163.918 92.16 163.358 93.2C162.825 94.24 162.558 95.5333 162.558 97.08V108H158.718V86.8H162.398V92.52L161.798 91C162.491 89.6133 163.558 88.5333 164.998 87.76C166.438 86.9867 168.118 86.6 170.038 86.6Z" fill="white"/>
</g>
<defs>
<filter id="filter0_d_10_272" x="0.959961" y="0.191895" width="205.982" height="116.048" filterUnits="userSpaceOnUse" color-interpolation-filters="sRGB">
<feFlood flood-opacity="0" result="BackgroundImageFix"/>
<feColorMatrix in="SourceAlpha" type="matrix" values="0 0 0 0 0 0 0 0 0 0 0 0 0 0 0 0 0 0 127 0" result="hardAlpha"/>
<feOffset dy="4"/>
<feGaussianBlur stdDeviation="2"/>
<feComposite in2="hardAlpha" operator="out"/>
<feColorMatrix type="matrix" values="0 0 0 0 0 0 0 0 0 0 0 0 0 0 0 0 0 0 0.25 0"/>
<feBlend mode="normal" in2="BackgroundImageFix" result="effect1_dropShadow_10_272"/>
<feBlend mode="normal" in="SourceGraphic" in2="effect1_dropShadow_10_272" result="shape"/>
</filter>
</defs>
</svg>
